<svg width="90" height="90" viewBox="0 0 90 90" fill="none" xmlns="http://www.w3.org/2000/svg">
<path fill-rule="evenodd" clip-rule="evenodd" d="M0.412785 0.436638C0.0281012 0.843651 0 1.05989 0 3.6116C0 6.22992 0.019177 6.36786 0.439367 6.76015C0.878164 7.16981 0.893165 7.17037 10.1229 7.17037H19.3671V10.2838V13.3973H18.5051C18.0192 13.3973 17.3199 13.5611 16.9022 13.773C15.5711 14.4477 15.2673 15.0693 14.3326 19.029C13.8642 21.013 13.481 22.8467 13.481 23.1041C13.481 23.3615 13.668 23.7453 13.8966 23.9568C14.2975 24.3279 14.5342 24.3415 20.6457 24.3415H26.9793L27.4453 23.8783C27.7016 23.6236 27.9114 23.2947 27.9114 23.1471C27.9114 22.9997 27.5246 21.2345 27.0516 19.2245C26.4748 16.7717 26.0419 15.3446 25.7351 14.884C25.1797 14.05 23.8999 13.3973 22.8197 13.3973H22.0253V10.2838V7.17037H32.8481H43.6709V10.2838V13.3973H42.9053C41.4277 13.3973 40.1662 14.1794 39.6169 15.4361C39.2966 16.1692 37.7848 22.5437 37.7848 23.1614C37.7848 23.3592 37.9827 23.7056 38.2242 23.9313C38.6575 24.3357 38.7551 24.3415 45.0266 24.3415H51.3894L51.8024 23.9049C52.0295 23.6647 52.2152 23.3182 52.2152 23.135C52.2152 22.5367 50.6956 16.1515 50.3831 15.4361C49.8338 14.1794 48.5723 13.3973 47.0947 13.3973H46.3291V10.2838V7.17037H57.1519H67.9747V10.2838V13.3973H67.1803C66.1001 13.3973 64.8203 14.05 64.2649 14.884C63.9581 15.3446 63.5252 16.7717 62.9484 19.2245C62.4754 21.2345 62.0886 22.9997 62.0886 23.1471C62.0886 23.2947 62.2984 23.6236 62.5547 23.8783L63.0207 24.3415H69.3543C75.4658 24.3415 75.7025 24.3279 76.1034 23.9568C76.332 23.7453 76.519 23.363 76.519 23.1075C76.519 22.852 76.1332 21.0147 75.6615 19.0245C74.7213 15.0567 74.4222 14.4443 73.0978 13.773C72.6801 13.5611 71.9808 13.3973 71.4949 13.3973H70.6329V10.2838V7.17037H79.9037H89.1742L89.5872 6.73374C89.9719 6.32672 90 6.11048 90 3.55877C90 0.940451 89.9808 0.802516 89.5606 0.410221L89.1211 0H44.9734H0.82576L0.412785 0.436638ZM87.3418 3.58519V4.52866H45H2.65823V3.58519V2.64172H45H87.3418V3.58519ZM23.5067 16.2769C23.6582 16.4585 24.8734 21.2081 24.8734 21.6191C24.8734 21.6634 22.9937 21.6998 20.6962 21.6998C18.2356 21.6998 16.519 21.6274 16.519 21.5236C16.519 21.0005 17.6622 16.5445 17.8561 16.3126C18.1644 15.9431 23.2014 15.9114 23.5067 16.2769ZM47.8202 16.2886C47.9856 16.4866 49.1772 21.1411 49.1772 21.5887C49.1772 21.6498 47.2975 21.6998 45 21.6998C42.7025 21.6998 40.8228 21.6498 40.8228 21.5887C40.8228 21.1411 42.0144 16.4866 42.1798 16.2886C42.4779 15.9316 47.5221 15.9316 47.8202 16.2886ZM72.1439 16.3126C72.3378 16.5445 73.481 21.0005 73.481 21.5236C73.481 21.6274 71.7644 21.6998 69.3038 21.6998C67.0063 21.6998 65.1266 21.6634 65.1266 21.6191C65.1266 21.2081 66.3418 16.4585 66.4933 16.2769C66.7986 15.9114 71.8356 15.9431 72.1439 16.3126ZM34.8934 42.9751C34.6677 43.2302 34.5792 43.9701 34.5042 46.23C34.4235 48.6568 34.3335 49.3475 33.9756 50.287C33.618 51.2255 33.5252 51.9354 33.4335 54.4382L33.3228 57.4573L31.5332 57.5121C30.5489 57.5421 29.6466 57.5296 29.5278 57.4845C29.3675 57.4232 29.3747 56.7065 29.5561 54.6937C29.9278 50.5674 30.1225 50.7587 25.5539 50.7587C21.1659 50.7587 21.3439 50.6357 21.529 53.5404C21.6004 54.6569 21.7101 56.0163 21.7732 56.5611L21.8877 57.5517H20.659C19.9832 57.5517 19.3925 57.5141 19.3462 57.4681C19.2999 57.4221 19.3654 56.2544 19.4916 54.8736C19.799 51.5148 19.8008 51.5671 19.3671 51.1361C19.0149 50.7861 18.7342 50.7587 15.5041 50.7587C11.1338 50.7587 11.2794 50.6655 11.4566 53.3523C11.5234 54.3647 11.6339 55.7238 11.7021 56.3724L11.8263 57.5517H6.29278C1.01259 57.5517 0.742025 57.5691 0.379747 57.9291C0.0351266 58.2716 0 58.558 0 61.0216C0 64.1781 0.123987 64.4845 1.47342 64.6645L2.27848 64.7717V76.696V88.6204L2.71785 89.0308L3.15741 89.441H45.0266H86.8958L87.3087 89.0044L87.7215 88.5675V76.6696V64.7717L88.5266 64.6645C89.876 64.4845 90 64.1781 90 61.0216C90 58.558 89.9649 58.2716 89.6202 57.9291C89.2447 57.5558 88.9874 57.5517 66.105 57.5517H42.9695L42.8575 54.8628C42.772 52.8109 42.6465 51.8833 42.3279 50.9474C41.9924 49.9624 41.8872 49.1024 41.7936 46.5801C41.639 42.4081 41.8631 42.6449 38.0696 42.6449C35.5606 42.6449 35.1475 42.6879 34.8934 42.9751ZM39.1139 47.4549C39.1139 49.3122 39.1863 49.8317 39.6188 51.0761C40.0593 52.3439 40.1258 52.8426 40.1409 54.9932L40.1582 57.4573L38.1171 57.5109L36.0759 57.5645V54.9492C36.0759 52.6473 36.1327 52.1728 36.5493 50.9874C36.8943 50.006 37.0568 49.0501 37.148 47.4637L37.2731 45.2866H38.1934H39.1139V47.4549ZM16.8023 55.1458C16.6225 57.6562 16.6639 57.5806 15.5081 57.5138L14.5289 57.4573L14.4027 56.5139C14.3334 55.995 14.2399 55.0823 14.1953 54.4854L14.1142 53.4004H15.5208H16.9272L16.8023 55.1458ZM26.877 54.9571C26.662 57.6423 26.7085 57.5517 25.5427 57.5517H24.5332L24.4086 55.995C24.3401 55.1387 24.2389 54.2046 24.1838 53.9193L24.0837 53.4004H25.5427H27.0015L26.877 54.9571ZM87.3418 61.1369V62.0803H45H2.65823V61.1369V60.1934H45H87.3418V61.1369ZM85.0633 75.7607V86.7993H79.1259H73.1886L72.2271 81.0335L71.2654 75.268L71.9459 74.9853C72.822 74.6217 73.6481 73.8467 73.979 73.0778C74.1401 72.704 74.2405 71.7794 74.2405 70.672C74.2405 67.8959 74.951 68.1186 66.0898 68.1186H58.6984L58.305 68.6158C57.9847 69.0201 57.9116 69.3809 57.9125 70.5499C57.9131 71.3401 58.0041 72.3108 58.1147 72.7067C58.3618 73.5909 59.6225 74.8836 60.3856 75.0353C60.6957 75.097 60.9494 75.2272 60.9494 75.325C60.9494 75.5233 59.2963 85.4648 59.1277 86.2804L59.0204 86.7993H55.523C53.5992 86.7993 52.0253 86.7589 52.0253 86.7094C52.0253 86.611 50.3858 76.6464 50.2316 75.8084C50.148 75.3537 50.2228 75.254 50.8409 74.9974C52.5228 74.299 53.1543 73.1229 53.1604 70.678C53.164 69.2034 53.1127 68.9373 52.7518 68.5552L52.3388 68.1186H45.0266C36.2072 68.1186 36.833 67.925 36.8396 70.6516C36.8457 73.1288 37.4702 74.2962 39.1667 75.0006C39.7504 75.2429 39.8616 75.3722 39.7838 75.7171C39.6908 76.1303 37.9747 86.5672 37.9747 86.7208C37.9747 86.764 36.4008 86.7993 34.477 86.7993H30.9796L30.8723 86.2804C30.7037 85.4648 29.0506 75.5233 29.0506 75.325C29.0506 75.2272 29.3043 75.097 29.6144 75.0353C30.3775 74.8836 31.6382 73.5909 31.8853 72.7067C31.9959 72.3108 32.0869 71.3401 32.0875 70.5499C32.0884 69.3809 32.0153 69.0201 31.695 68.6158L31.3016 68.1186H23.9102C15.049 68.1186 15.7595 67.8959 15.7595 70.672C15.7595 71.7794 15.8599 72.704 16.0209 73.0778C16.3519 73.8466 17.178 74.6217 18.0539 74.9853L18.7344 75.2678L17.8227 80.7033C17.3212 83.6928 16.9082 86.2875 16.9048 86.4691C16.8991 86.7764 16.485 86.7993 10.9177 86.7993H4.93671V75.7607V64.7221H45H85.0633V75.7607ZM29.4304 71.2843C29.4304 71.5726 29.2973 71.9972 29.1347 72.2278C28.8423 72.6429 28.7878 72.6472 23.9269 72.6472C18.4618 72.6472 18.4177 72.6372 18.4177 71.4073V70.7603H23.924H29.4304V71.2843ZM50.5063 71.3586C50.5063 71.6877 50.3649 72.1123 50.1921 72.3021C49.9033 72.6193 49.4856 72.6472 45.033 72.6472C39.6203 72.6472 39.4937 72.6185 39.4937 71.3915V70.7603H45H50.5063V71.3586ZM71.5823 71.4073C71.5823 72.6372 71.5382 72.6472 66.0731 72.6472C61.2121 72.6472 61.1577 72.6429 60.8653 72.2278C60.7027 71.9972 60.5696 71.5726 60.5696 71.2843V70.7603H66.076H71.5823V71.4073ZM80.9191 72.3291C80.5359 72.7346 80.5063 72.9552 80.5063 75.4006C80.5063 78.5096 80.6459 78.8741 81.8354 78.8741C83.0271 78.8741 83.1646 78.512 83.1646 75.3742C83.1646 72.8365 83.1442 72.694 82.7252 72.3027C82.155 71.7705 81.4375 71.7809 80.9191 72.3291ZM27.2297 80.7139C27.7236 83.6977 28.1702 86.2875 28.2222 86.4691C28.3103 86.7766 28.0175 86.7993 23.9368 86.7993C20.9624 86.7993 19.557 86.7347 19.557 86.5981C19.557 86.3602 21.2231 76.3313 21.3653 75.7135C21.4603 75.3003 21.5282 75.2889 23.8973 75.2889H26.3316L27.2297 80.7139ZM47.4684 75.3957C47.4684 75.545 49.1588 85.6452 49.29 86.2804L49.3973 86.7993H45H40.6027L40.71 86.2804C40.8412 85.6452 42.5316 75.545 42.5316 75.3957C42.5316 75.3371 43.6424 75.2889 45 75.2889C46.3576 75.2889 47.4684 75.3371 47.4684 75.3957ZM68.6372 75.7135C68.7516 76.1988 70.4411 86.4423 70.4423 86.6578C70.4427 86.7357 68.4722 86.7993 66.0632 86.7993C61.9825 86.7993 61.6897 86.7766 61.7778 86.4691C61.8298 86.2875 62.2764 83.6977 62.7703 80.7139L63.6684 75.2889H66.1027C68.471 75.2889 68.5397 75.3004 68.6372 75.7135Z" fill="#D5621D"/>
</svg>
