<svg width="90" height="90" viewBox="0 0 90 90" fill="none" xmlns="http://www.w3.org/2000/svg">
<rect width="90" height="90" fill="#333333"/>
<g id="&#208;&#154;&#208;&#190;&#208;&#189;&#209;&#130;&#208;&#181;&#208;&#189;&#209;&#130;">
<rect width="1920" height="2342" transform="translate(-1135 -490)" fill="#210E09"/>
<g id="price-list">
<g id="Frame 41">
<path id="image 3 (Traced)" fill-rule="evenodd" clip-rule="evenodd" d="M17.3145 12.2813C15.8676 13.0672 15.1708 14.354 15.3534 15.9022L15.4621 16.8237L14.4104 17.2303C13.0502 17.7561 11.4604 18.9299 10.5448 20.0848C9.29531 21.6605 8.70592 23.0537 8.41904 25.109L8.24027 26.3893L9.40254 28.8765C10.0417 30.2446 10.7278 31.5017 10.9269 31.6705C11.1996 31.9014 11.6051 31.9771 12.5703 31.9771H13.8516L12.9632 33.9923L12.0748 36.0075H6.3958C0.780117 36.0075 0.712793 36.0117 0.358418 36.3911C0.00193358 36.7724 0 36.886 0 57.301V77.8275L0.406758 78.2086C0.797871 78.5749 0.956953 78.5896 4.50703 78.5896C8.14043 78.5896 8.2067 78.5829 8.5827 78.1841C8.96414 77.7791 8.96484 77.7646 8.96484 69.2699V60.7612L9.73986 60.6741C10.6604 60.5707 11.8501 60.0249 12.7767 59.2808C13.7798 58.4753 14.7396 58.0954 15.782 58.091C16.9247 58.0862 17.6627 58.3829 18.9997 59.3849C20.3108 60.3675 21.5357 60.7838 23.1152 60.7838C24.6948 60.7838 25.9196 60.3675 27.2308 59.3849C28.555 58.3927 29.3034 58.0871 30.4102 58.0871C31.5169 58.0871 32.2654 58.3927 33.5895 59.3849C34.8979 60.3654 36.125 60.7831 37.7051 60.7861C39.1032 60.7885 40.3578 60.4032 41.4107 59.6476C43.0348 58.4823 43.6504 58.193 44.6611 58.1201C45.9631 58.0263 46.655 58.268 48.0749 59.3129C49.8001 60.5823 51.5681 61.0588 53.3415 60.7319C54.4706 60.5239 55.9499 59.8395 56.6016 59.2239C57.7027 58.1835 59.7623 57.7882 61.1248 58.3556C61.4793 58.5033 62.1835 58.9426 62.6896 59.332C64.8614 61.0022 67.4624 61.2783 69.8442 60.0915C70.3434 59.8426 70.9497 59.4522 71.1914 59.2239C72.2925 58.1835 74.3521 57.7882 75.7146 58.3556C76.0692 58.5033 76.7733 58.9426 77.2794 59.332C78.2967 60.1142 79.7006 60.7156 80.5097 60.7156H81.0352V69.2717V77.8275L81.4419 78.2086C81.833 78.5749 81.9921 78.5896 85.5422 78.5896C89.1756 78.5896 89.2419 78.5829 89.6179 78.1841L90 77.7784V57.2765C90 36.8862 89.9981 36.7724 89.6416 36.3911C89.2872 36.0117 89.2199 36.0075 83.6042 36.0075H77.9252L77.0368 33.9923L76.1484 31.9771H77.4297C78.3949 31.9771 78.8005 31.9014 79.0731 31.6705C79.2722 31.5017 79.9545 30.2528 80.5888 28.8948L81.7425 26.4257L81.5516 25.0569C81.3531 23.6349 80.919 22.3398 80.2879 21.2878C79.1923 19.4615 77.2012 17.77 75.3936 17.13L74.5376 16.8269L74.6464 15.9037C75.0746 12.2722 70.434 10.5333 68.3631 13.5496C68.0061 14.0696 67.9395 14.3778 67.9395 15.5112V16.856L67.1402 17.1388C64.2897 18.148 61.8309 20.9787 61.0926 24.1009C60.6549 25.9524 60.7191 26.3341 61.8949 28.8706C63.2498 31.7935 63.4373 31.9771 65.0677 31.9771C66.1317 31.9771 66.2919 32.0168 66.1992 32.2575C66.1398 32.4119 65.7555 33.3187 65.3455 34.2727L64.5996 36.0075L58.1143 35.9637L51.6292 35.9199L50.7843 33.9923L49.9391 32.0648L51.0291 32.0199C52.9407 31.9414 52.8119 32.0558 54.1556 29.2423C55.5089 26.4082 55.6079 25.8417 55.0949 23.868C54.6307 22.0825 53.8588 20.79 52.4029 19.3602C51.1409 18.1212 50.3543 17.6033 48.8338 17.011C48.1917 16.761 48.1869 16.7517 48.3652 16.1079C48.7473 14.7284 47.9181 13.0381 46.5312 12.3687C43.7302 11.017 40.7983 13.5968 41.7038 16.6164C41.7282 16.6974 41.3028 16.9445 40.7586 17.1651C37.2797 18.5761 34.6289 22.3065 34.6289 25.7914C34.6289 26.574 34.8158 27.1067 35.8432 29.2517C37.1849 32.0534 37.0584 31.9412 38.9658 32.0199L40.0507 32.0648L39.208 33.9923L38.3651 35.9199L31.8827 35.9637L25.4004 36.0075L24.6546 34.2727C24.2445 33.3187 23.8602 32.4119 23.8008 32.2575C23.7081 32.0169 23.8674 31.9771 24.9226 31.9771C25.8333 31.9771 26.2501 31.8976 26.5289 31.6705C27.0571 31.2401 29.1804 26.6691 29.1767 25.9704C29.1711 24.9257 28.6722 23.0358 28.0893 21.8509C27.2587 20.1623 25.4157 18.3372 23.7254 17.5296C23.0085 17.1872 22.3407 16.907 22.2412 16.907C22.133 16.907 22.0605 16.3585 22.0605 15.5368C22.0605 13.9847 21.7204 13.2789 20.6054 12.5173C19.8181 11.9795 18.097 11.8562 17.3145 12.2813ZM19.4113 14.729C19.7381 15.0549 19.7752 15.8732 19.4766 16.171C18.9555 16.6904 17.7539 16.1859 17.7539 15.448C17.7539 14.6166 18.8302 14.1498 19.4113 14.729ZM45.8204 14.9119C46.0907 15.323 46.0949 15.4178 45.8617 15.8319C45.6599 16.1902 45.4671 16.2936 45 16.2936C44.5329 16.2936 44.3401 16.1902 44.1383 15.8319C43.9051 15.4178 43.9093 15.323 44.1796 14.9119C44.3918 14.5889 44.634 14.4537 45 14.4537C45.366 14.4537 45.6082 14.5889 45.8204 14.9119ZM71.9246 14.7437C72.5931 15.3468 72.1441 16.3813 71.2141 16.3813C70.605 16.3813 70.3125 16.0897 70.3125 15.4825C70.3125 14.5698 71.2538 14.1384 71.9246 14.7437ZM20.7675 19.0874C22.294 19.41 23.2311 19.9021 24.3779 20.9833C25.3559 21.9052 26.543 23.9588 26.543 24.7284V25.143H18.7068H10.8705L10.9923 24.5735C11.1953 23.6241 11.918 22.2532 12.6557 21.4175C14.535 19.2894 17.5816 18.4141 20.7675 19.0874ZM46.777 19.0135C48.1969 19.2819 49.815 20.1132 50.7693 21.0646C51.6145 21.9071 52.6679 23.7786 52.7694 24.6173L52.8223 25.0554H45H37.1777L37.2306 24.6173C37.2598 24.3763 37.5303 23.6693 37.8318 23.046C39.3449 19.9177 42.9541 18.2906 46.777 19.0135ZM73.0487 19.0261C75.9106 19.5518 78.4368 21.9034 79.0077 24.5735L79.1295 25.143H71.2932H63.457V24.7284C63.457 24.5004 63.7334 23.7632 64.0712 23.0903C64.7538 21.7299 66.0936 20.3366 67.3175 19.714C68.8451 18.9372 71.0946 18.6672 73.0487 19.0261ZM25.8398 27.7668C25.8398 27.8607 25.6658 28.2944 25.4533 28.7306L25.0666 29.5239H18.7766H12.4864L12.044 28.6535C11.8007 28.1749 11.6016 27.7412 11.6016 27.6897C11.6016 27.6383 14.8052 27.5963 18.7207 27.5963C23.2191 27.5963 25.8398 27.659 25.8398 27.7668ZM51.7799 28.5163L51.3726 29.4362H45H38.6274L38.2201 28.5163L37.8128 27.5963H45H52.1872L51.7799 28.5163ZM78.3984 27.6897C78.3984 27.7412 78.1993 28.1749 77.956 28.6535L77.5136 29.5239H71.2234H64.9334L64.5467 28.7306C64.3342 28.2944 64.1602 27.8607 64.1602 27.7668C64.1602 27.659 66.7809 27.5963 71.2793 27.5963C75.1948 27.5963 78.3984 27.6383 78.3984 27.6897ZM21.7969 33.8465C22.2319 34.8729 22.6143 35.779 22.6464 35.8602C22.6788 35.9411 20.9217 36.0075 18.742 36.0075H14.779L15.4016 34.5619C15.744 33.7668 16.1325 32.8598 16.2649 32.5467L16.5055 31.9771L18.7557 31.9789L21.0059 31.9805L21.7969 33.8465ZM48.047 33.8609C48.5 34.8969 48.87 35.8039 48.8689 35.8761C48.8681 35.9483 47.127 36.0075 45 36.0075C42.873 36.0075 41.1319 35.9483 41.1311 35.8761C41.13 35.8039 41.5 34.8969 41.953 33.8609L42.7769 31.9771H45H47.2231L48.047 33.8609ZM74.3558 33.9923L75.1811 35.9199L71.3146 35.9672C69.1882 35.9932 67.4186 35.9848 67.3822 35.9487C67.346 35.9124 67.6939 35.004 68.1551 33.9296L68.9941 31.9764L71.2624 32.0206L73.5307 32.0648L74.3558 33.9923ZM7.03125 45.4168V52.3729L7.50357 52.8643C8.15203 53.5389 8.74072 53.4926 10.0241 52.6657C11.8682 51.4774 13.0737 51.1654 15.8203 51.1654C18.5669 51.1654 19.7724 51.4774 21.6165 52.6657C22.2056 53.0453 22.8813 53.3558 23.1177 53.3558C23.3543 53.3558 23.9646 53.0938 24.4742 52.7737C26.3496 51.5949 28.1334 51.0872 30.4102 51.0846C32.7271 51.0819 35.0002 51.7715 36.7355 53.0034C37.4344 53.4995 37.9974 53.4439 39.064 52.7737C40.9395 51.5949 42.7233 51.0872 45 51.0846C47.317 51.0819 49.59 51.7715 51.3253 53.0034C52.0242 53.4995 52.5872 53.4439 53.6539 52.7737C55.5293 51.5949 57.3131 51.0872 59.5898 51.0846C61.9068 51.0819 64.1798 51.7715 65.9152 53.0034C66.6141 53.4995 67.1771 53.4439 68.2437 52.7737C70.1191 51.5949 71.903 51.0872 74.1797 51.0846C76.4967 51.0819 78.7697 51.7715 80.505 53.0034C81.2134 53.5061 81.9274 53.4562 82.4964 52.8643L82.9688 52.3729V45.4168V38.4608H85.2539H87.5391V47.0528C87.5391 55.0833 87.519 55.651 87.2314 55.7383C86.5046 55.9589 84.9452 56.7604 84.3762 57.2059C82.4548 58.7104 80.612 58.7586 78.7489 57.3531C77.1219 56.1254 76.204 55.7533 74.5907 55.6677C72.7842 55.5718 71.5359 55.9351 70.1323 56.9651C67.4441 58.9381 66.3288 58.8958 63.1934 56.7024C60.9887 55.1602 57.7635 55.2858 55.4825 57.0026C52.9189 58.9321 51.7159 58.8795 48.6035 56.7024C47.6047 56.0038 46.3535 55.6338 44.9889 55.6338C43.4987 55.6338 42.352 56.0017 41.1288 56.8722C39.436 58.0766 38.8568 58.3219 37.7051 58.3219C36.5801 58.3219 35.6611 57.9622 34.6771 57.1368C34.3877 56.8941 33.7245 56.4764 33.2033 56.2084C32.3441 55.7668 32.0839 55.7215 30.4102 55.7215C28.7364 55.7215 28.4762 55.7668 27.617 56.2084C27.0958 56.4764 26.4326 56.8941 26.1432 57.1368C24.2302 58.7414 22.0003 58.7414 20.0872 57.1368C19.7979 56.8941 19.1347 56.4764 18.6135 56.2084C17.7543 55.7668 17.4941 55.7215 15.8203 55.7215C13.7456 55.7215 13.1149 55.9466 11.2511 57.3531C9.38795 58.7586 7.54523 58.7104 5.62377 57.2059C5.05477 56.7604 3.49541 55.9589 2.76855 55.7383C2.48098 55.651 2.46094 55.0833 2.46094 47.0528V38.4608H4.74609H7.03125V45.4168ZM80.5078 44.2623C80.5078 49.7204 80.4895 50.0561 80.2002 49.9336C80.0311 49.8621 79.2202 49.559 78.3984 49.26C76.9663 48.7391 76.7913 48.7166 74.1797 48.7187C71.6553 48.7208 71.3517 48.7569 70.0488 49.2094C69.2754 49.478 68.246 49.9196 67.7614 50.1907L66.88 50.6835L66.0161 50.1902C65.5409 49.9189 64.4741 49.4754 63.6455 49.2045C62.2745 48.7564 61.9089 48.7121 59.5898 48.7121C57.2708 48.7121 56.9051 48.7564 55.5342 49.2045C54.7056 49.4754 53.6388 49.9189 53.1636 50.1902L52.2997 50.6835L51.4183 50.1907C50.9337 49.9196 49.9043 49.478 49.1309 49.2094C47.8264 48.7564 47.5276 48.721 45 48.721C42.4724 48.721 42.1736 48.7564 40.8691 49.2094C40.0957 49.478 39.0663 49.9196 38.5817 50.1907L37.7003 50.6835L36.8364 50.1902C36.3612 49.9189 35.2944 49.4754 34.4658 49.2045C33.0949 48.7564 32.7292 48.7121 30.4102 48.7121C28.0911 48.7121 27.7254 48.7564 26.3545 49.2045C25.5259 49.4754 24.4726 49.9112 24.0142 50.1728L23.1805 50.6489L21.8296 49.9851C19.6599 48.919 17.9399 48.5701 15.3077 48.6623C13.1783 48.7368 11.745 49.066 9.7998 49.9275C9.51029 50.0558 9.49219 49.7226 9.49219 44.2623V38.4608H45H80.5078V44.2623ZM3.12891 58.5082C3.38994 58.6433 3.90533 58.9936 4.27412 59.2866C4.64291 59.5794 5.29541 59.9884 5.72432 60.1954L6.50391 60.5716V68.354V76.1363H4.48242H2.46094V67.1993C2.46094 62.284 2.50436 58.2624 2.55762 58.2624C2.6107 58.2624 2.8677 58.3729 3.12891 58.5082ZM87.5391 67.1993V76.1363H85.5176H83.4961V68.354V60.5716L84.2992 60.1842C84.741 59.9709 85.3144 59.6194 85.5737 59.4028C86.1233 58.9435 87.2165 58.2639 87.4072 58.2631C87.4798 58.2627 87.5391 62.284 87.5391 67.1993Z" fill="#D5621D"/>
</g>
</g>
</g>
</svg>
