<svg width="25" height="25" viewBox="0 0 25 25" fill="none" xmlns="http://www.w3.org/2000/svg">
<path d="M2.55611 8.27045C2.84912 7.97753 3.24648 7.81297 3.6608 7.81297C4.07512 7.81297 4.47247 7.97753 4.76549 8.27045L12.4999 16.0048L20.2342 8.27045C20.5289 7.98583 20.9236 7.82834 21.3333 7.8319C21.743 7.83546 22.1349 7.99978 22.4246 8.28948C22.7143 8.57918 22.8786 8.97108 22.8822 9.38076C22.8857 9.79044 22.7282 10.1851 22.4436 10.4798L13.6045 19.3189C13.3115 19.6118 12.9142 19.7764 12.4999 19.7764C12.0855 19.7764 11.6882 19.6118 11.3952 19.3189L2.55611 10.4798C2.26319 10.1868 2.09863 9.78946 2.09863 9.37514C2.09863 8.96082 2.26319 8.56346 2.55611 8.27045Z" fill="white"/>
</svg>
