<svg width="60" height="60" viewBox="0 0 60 60" fill="none" xmlns="http://www.w3.org/2000/svg">
<path fill-rule="evenodd" clip-rule="evenodd" d="M40.8124 37.2476L54.2624 50.6976C54.7352 51.1707 55.0006 51.8122 55.0004 52.481C55.0001 53.1498 54.7342 53.7911 54.2612 54.2638C53.7881 54.7366 53.1466 55.002 52.4778 55.0018C51.809 55.0016 51.1677 54.7357 50.6949 54.2626L37.2449 40.8126C33.2242 43.9268 28.1681 45.3923 23.1052 44.911C18.0423 44.4297 13.353 42.0377 9.99111 38.2216C6.62924 34.4056 4.84738 29.4521 5.00804 24.369C5.16869 19.2858 7.25978 14.4547 10.8559 10.8586C14.4521 7.26247 19.2831 5.17138 24.3663 5.01072C29.4494 4.85007 34.4029 6.63192 38.2189 9.9938C42.035 13.3557 44.427 18.045 44.9083 23.1079C45.3896 28.1708 43.9241 33.2269 40.8099 37.2476H40.8124ZM24.9999 40.0001C28.9782 40.0001 32.7935 38.4197 35.6065 35.6067C38.4196 32.7936 39.9999 28.9783 39.9999 25.0001C39.9999 21.0218 38.4196 17.2065 35.6065 14.3935C32.7935 11.5804 28.9782 10.0001 24.9999 10.0001C21.0217 10.0001 17.2064 11.5804 14.3933 14.3935C11.5803 17.2065 9.99991 21.0218 9.99991 25.0001C9.99991 28.9783 11.5803 32.7936 14.3933 35.6067C17.2064 38.4197 21.0217 40.0001 24.9999 40.0001Z" fill="white"/>
<path d="M27.5 27.5H32.5C33.163 27.5 33.7989 27.2366 34.2678 26.7678C34.7366 26.2989 35 25.663 35 25C35 24.337 34.7366 23.7011 34.2678 23.2322C33.7989 22.7634 33.163 22.5 32.5 22.5H27.5V17.5C27.5 16.837 27.2366 16.2011 26.7678 15.7322C26.2989 15.2634 25.663 15 25 15C24.337 15 23.7011 15.2634 23.2322 15.7322C22.7634 16.2011 22.5 16.837 22.5 17.5V22.5H17.5C16.837 22.5 16.2011 22.7634 15.7322 23.2322C15.2634 23.7011 15 24.337 15 25C15 25.663 15.2634 26.2989 15.7322 26.7678C16.2011 27.2366 16.837 27.5 17.5 27.5H22.5V32.5C22.5 33.163 22.7634 33.7989 23.2322 34.2678C23.7011 34.7366 24.337 35 25 35C25.663 35 26.2989 34.7366 26.7678 34.2678C27.2366 33.7989 27.5 33.163 27.5 32.5V27.5Z" fill="#D5621D"/>
</svg>
